<?xml version="1.0" standalone="no"?>
<!DOCTYPE svg PUBLIC "-//W3C//DTD SVG 20010904//EN"
 "http://www.w3.org/TR/2001/REC-SVG-20010904/DTD/svg10.dtd">
<svg version="1.0" xmlns="http://www.w3.org/2000/svg"
 width="600.000000pt" height="600.000000pt" viewBox="0 0 600.000000 600.000000"
 preserveAspectRatio="xMidYMid meet">
<metadata>
Created by potrace 1.14, written by Peter Selinger 2001-2017
</metadata>
<g transform="translate(0.000000,600.000000) scale(0.100000,-0.100000)"
fill="#000000" stroke="none">
<path d="M2564 5062 c-11 -7 -84 -118 -84 -127 0 -5 -109 -180 -141 -227 -11
-15 -19 -29 -19 -32 0 -3 -25 -44 -55 -91 -30 -46 -55 -93 -55 -104 0 -19 20
-30 160 -94 153 -70 201 -92 264 -123 62 -31 71 -33 90 -21 12 8 28 27 36 43
8 16 29 50 47 77 18 26 33 49 33 52 0 3 25 44 55 90 30 47 55 88 55 92 0 3 15
26 33 52 18 25 41 63 51 85 17 37 17 39 0 56 -20 18 -327 215 -401 257 -45 25
-52 27 -69 15z"/>
<path d="M3151 4651 c-12 -16 -21 -32 -21 -35 0 -3 -20 -37 -45 -76 -25 -39
-45 -75 -45 -80 0 -6 -4 -10 -10 -10 -5 0 -10 -4 -10 -10 0 -5 -20 -41 -45
-80 -25 -39 -45 -75 -45 -80 0 -6 -4 -10 -9 -10 -5 0 -11 -8 -15 -17 -3 -10
-14 -33 -25 -52 -14 -23 -17 -39 -11 -46 5 -6 86 -49 180 -96 l170 -84 0 -47
c0 -26 -5 -68 -12 -92 -13 -49 0 -80 29 -69 12 5 219 305 232 338 2 6 33 51
67 101 35 51 64 95 64 98 0 3 17 29 37 57 44 61 41 69 -42 113 -33 17 -62 33
-65 36 -3 3 -32 18 -65 35 -33 16 -102 54 -154 82 -51 29 -104 53 -117 53 -14
0 -31 -11 -43 -29z"/>
<path d="M1901 4203 c-66 -98 -164 -243 -218 -322 -54 -79 -100 -149 -102
-155 -2 -6 -7 -13 -10 -16 -10 -8 -245 -357 -256 -380 -5 -11 -13 -20 -17 -20
-5 0 -8 -14 -8 -30 0 -31 6 -39 110 -155 26 -27 73 -81 105 -120 33 -38 62
-72 65 -75 3 -3 34 -39 70 -80 36 -41 83 -95 105 -120 134 -153 173 -197 200
-229 43 -51 248 -285 255 -291 3 -3 47 -54 99 -113 l93 -108 -5 -57 c-3 -31
-10 -79 -16 -107 -6 -27 -19 -95 -27 -150 -9 -55 -20 -125 -25 -155 -21 -123
-29 -168 -38 -230 -5 -36 -11 -72 -15 -80 -3 -8 -11 -46 -17 -85 -6 -38 -15
-95 -20 -125 -18 -101 -30 -185 -32 -220 l-2 -35 822 -3 c547 -1 830 1 849 8
26 10 27 11 20 78 -7 63 -11 129 -35 552 -6 96 -13 189 -15 205 -3 17 -7 92
-9 168 l-4 138 61 77 c33 42 63 79 66 82 3 3 19 23 35 45 17 22 32 42 35 45 4
3 19 23 36 45 16 22 39 51 51 65 66 73 98 133 105 199 13 133 25 218 31 228 4
6 12 48 18 94 6 46 15 116 20 154 17 119 17 120 -11 123 -18 2 -37 -9 -65 -36
-22 -21 -62 -55 -90 -77 -27 -22 -52 -42 -55 -45 -3 -3 -45 -39 -95 -80 -49
-41 -92 -77 -95 -80 -24 -26 -37 -29 -56 -12 -11 9 -37 32 -59 51 -22 19 -78
69 -125 111 -164 150 -171 154 -333 177 -20 3 -40 9 -43 14 -3 5 -22 9 -43 9
-20 0 -41 4 -46 8 -6 5 -46 16 -90 26 -44 10 -90 22 -103 27 -13 5 -38 9 -57
9 -19 0 -37 5 -40 10 -8 13 -92 13 -100 0 -3 -5 55 -105 130 -221 74 -116 135
-213 135 -215 0 -2 16 -26 35 -53 19 -26 35 -51 35 -55 0 -3 20 -35 45 -70 25
-36 45 -70 45 -75 0 -6 5 -11 10 -11 6 0 10 -5 10 -11 0 -6 16 -33 35 -59 19
-26 35 -53 35 -59 0 -6 5 -11 10 -11 6 0 10 -4 10 -10 0 -8 34 -65 57 -95 5
-5 15 -23 23 -39 8 -15 39 -50 68 -77 l54 -49 -75 0 c-85 0 -97 -7 -114 -66
-40 -138 -41 -139 -48 -119 -14 40 -37 100 -46 117 -5 10 -9 24 -9 33 0 25
-36 37 -78 26 -60 -16 -92 -20 -92 -12 0 4 26 30 58 58 95 84 132 121 132 133
0 10 -74 125 -100 157 -5 7 -10 15 -10 18 0 3 -20 35 -45 71 -25 35 -45 66
-45 70 0 3 -20 34 -45 68 -25 35 -45 66 -45 70 0 3 -15 28 -34 54 -18 26 -96
146 -174 266 -137 213 -165 246 -213 246 -10 0 -21 5 -24 10 -3 6 -14 10 -23
10 -14 0 -105 31 -177 60 -11 4 -40 13 -65 20 -53 14 -90 31 -90 40 0 3 25 28
55 54 86 74 88 78 69 172 -30 156 -30 154 3 154 24 0 36 -10 69 -56 21 -30 44
-61 49 -67 6 -7 23 -30 39 -52 17 -22 35 -44 40 -48 14 -10 236 1 365 19 19 2
75 26 125 53 85 46 92 51 103 92 16 54 28 189 19 222 -5 22 -52 57 -77 57 -5
0 -34 12 -66 26 -32 14 -67 30 -78 34 -31 12 -66 26 -118 49 -26 12 -67 29
-90 38 -23 9 -46 20 -51 25 -6 4 -16 8 -23 8 -7 0 -38 12 -70 26 -32 14 -68
30 -80 35 -52 21 -70 28 -113 47 -53 23 -117 51 -145 62 -11 4 -43 17 -72 29
-28 12 -58 21 -67 21 -8 0 -68 -79 -135 -177z m1045 -2456 c56 -37 71 -36 105
6 l22 29 115 -5 c113 -4 116 -5 138 -32 12 -16 31 -30 41 -31 24 -4 43 -32 43
-66 0 -21 5 -28 20 -28 11 0 36 -6 54 -14 36 -15 54 -45 77 -123 7 -24 18 -43
25 -43 30 0 32 -61 3 -102 -17 -23 -19 -32 -9 -38 8 -5 11 -19 7 -39 -4 -16
-2 -33 2 -36 5 -2 12 -22 15 -42 14 -80 13 -86 -22 -106 -40 -24 -60 -19 -137
32 -52 35 -61 38 -72 25 -19 -26 -46 -12 -62 31 -19 51 -16 48 -39 34 -15 -9
-30 -9 -63 -1 -40 10 -48 9 -87 -14 -28 -17 -54 -24 -75 -22 -25 2 -33 -1 -35
-16 -4 -17 0 -18 34 -13 36 6 37 5 20 -8 -11 -8 -34 -15 -50 -15 -46 0 -115
-27 -160 -63 l-40 -32 59 -7 c33 -4 75 -3 93 2 38 10 42 -3 8 -25 -19 -12 -38
-15 -83 -10 -49 5 -68 2 -120 -19 -35 -14 -71 -26 -82 -26 -11 0 -81 -27 -157
-60 -75 -33 -141 -60 -145 -60 -5 0 -9 8 -9 18 0 13 17 25 58 42 93 38 235
108 269 134 l32 23 -30 9 c-47 14 -30 29 31 30 42 0 65 7 98 27 23 15 42 31
42 36 0 4 11 20 25 35 26 28 32 51 15 61 -5 3 -10 12 -10 18 0 7 7 4 15 -7 18
-23 35 -13 35 22 0 31 33 90 54 98 21 8 1 58 -29 74 -14 7 -25 19 -25 26 0 6
-16 24 -35 38 -19 15 -35 34 -35 42 0 9 -13 29 -30 46 -23 22 -30 39 -30 68 0
56 34 129 60 130 3 0 28 -15 56 -33z"/>
<path d="M3649 4098 c-51 -73 -96 -135 -99 -138 -4 -3 -18 -22 -31 -42 -13
-20 -67 -96 -119 -168 -52 -73 -99 -140 -105 -149 -5 -9 -12 -18 -16 -21 -26
-24 -189 -273 -189 -289 0 -16 8 -23 30 -28 17 -3 33 -10 36 -14 3 -5 14 -9
25 -9 10 0 27 -4 37 -9 18 -9 42 -19 112 -46 25 -9 53 -21 62 -26 10 -5 27 -9
37 -9 11 0 23 -4 26 -10 3 -5 19 -10 34 -10 21 0 36 10 55 34 14 19 31 40 38
48 7 7 36 40 63 73 28 33 55 65 61 71 11 13 61 72 159 189 93 111 140 167 223
263 74 86 85 114 53 131 -10 6 -36 25 -58 43 -22 18 -55 44 -73 58 -18 14 -38
30 -44 35 -6 6 -29 24 -51 40 -22 17 -42 32 -45 35 -27 28 -102 80 -114 80 -8
0 -56 -60 -107 -132z"/>
<path d="M4184 3723 c-27 -35 -54 -68 -174 -203 -31 -36 -70 -81 -86 -100 -15
-19 -44 -53 -64 -75 -19 -22 -57 -67 -85 -99 -27 -32 -65 -75 -82 -95 -18 -20
-45 -53 -60 -74 l-26 -38 59 -61 c32 -33 76 -78 97 -99 20 -22 47 -39 58 -39
19 0 101 60 149 110 8 8 53 49 100 90 47 41 90 80 96 85 6 6 44 39 84 75 197
174 280 254 280 271 0 27 -268 289 -296 289 -13 0 -32 -14 -50 -37z"/>
<path d="M3015 3493 c-11 -2 -52 -15 -92 -29 -39 -13 -80 -24 -92 -24 -11 0
-23 -4 -26 -10 -3 -5 -19 -10 -35 -10 -16 0 -32 -4 -35 -10 -3 -5 -19 -10 -34
-10 -15 0 -32 -5 -39 -12 -18 -18 -15 -48 6 -54 9 -3 26 -9 37 -14 65 -26 102
-42 117 -50 42 -23 64 -11 161 88 120 121 129 157 32 135z"/>
</g>
</svg>
